General
Complete name : School.Of.Rock.DVDRIP.aaaevilacharya
Format : AVI
Format/Info : Audio Video Interleave
File size : 696 MiB
Duration : 1h 49mn
Overall bit rate : 891 Kbps
Writing library : MPlayer

Video
ID : 0
Format : MPEG-4 Visual
Format profile : Advanced Simple@L5
Format settings, BVOP : Yes
Format settings, QPel : No
Format settings, GMC : No warppoints
Format settings, Matrix : Default (H.263)
Codec ID : XVID
Codec ID/Hint : XviD
Duration : 1h 49mn
Bit rate : 767 Kbps
Width : 620 pixels
Height : 280 pixels
Display aspect ratio : 2.2:1
Frame rate : 23.976 fps
Color space : YUV
Chroma subsampling : 4:2:0
Bit depth : 8 bits
Scan type : Progressive
Bits/(Pixel*Frame) : 0.184
Stream size : 599 MiB (86%)


Audio
ID : 1
Format : MPEG Audio
Format version : Version 1
Format profile : Layer 3
Mode : Joint stereo
Mode extension : MS Stereo
Codec ID : 55
Codec ID/Hint : MP3
Duration : 1h 49mn
Bit rate mode : Constant
Bit rate : 112 Kbps
Channel(s) : 2 channels
Sampling rate : 44.1 KHz
Video delay : 42ms
Stream size : 87.5 MiB (13%)
Alignment : Aligned on interleaves
Interleave, duration : 26 ms (0.63 video frame)
Interleave, preload duration : 809 ms

